<svg height="496pt" viewBox="0 0 496 496" width="496pt" xmlns="http://www.w3.org/2000/svg"><path d="m289.222656 424-15.101562-105.753906c8.765625-7.542969 13.878906-18.519532 13.878906-30.246094 0-22.054688-17.945312-40-40-40s-40 17.945312-40 40c0 11.726562 5.113281 22.703125 13.878906 30.246094l-15.101562 105.753906zm-41.222656-160c13.230469 0 24 10.769531 24 24 0 8.078125-4.0625 15.566406-10.863281 20.039062l-4.242188 2.792969 13.882813 97.167969h-45.554688l13.882813-97.167969-4.242188-2.792969c-6.800781-4.472656-10.863281-11.960937-10.863281-20.039062 0-13.230469 10.769531-24 24-24zm0 0"/><path d="m248 208c-30.910156 0-60.816406 11.273438-84.191406 31.742188l10.535156 12.035156c20.464844-17.914063 46.625-27.777344 73.65625-27.777344 61.761719 0 112 50.238281 112 112 0 27.039062-9.863281 53.191406-27.785156 73.65625l12.042968 10.542969c20.46875-23.375 31.742188-53.289063 31.742188-84.199219 0-70.574219-57.425781-128-128-128zm0 0"/><path d="m248 448c-61.761719 0-112-50.238281-112-112 0-27.039062 9.863281-53.191406 27.785156-73.65625l-12.042968-10.542969c-20.46875 23.375-31.742188 53.289063-31.742188 84.199219 0 70.574219 57.425781 128 128 128 30.910156 0 60.816406-11.273438 84.191406-31.742188l-10.535156-12.035156c-20.464844 17.914063-46.625 27.777344-73.65625 27.777344zm0 0"/><path d="m48 160h-48v48h48zm-16 32h-16v-16h16zm0 0"/><path d="m64 160h48v16h-48zm0 0"/><path d="m64 192h48v16h-48zm0 0"/><path d="m0 224h48v16h-48zm0 0"/><path d="m0 256h48v16h-48zm0 0"/><path d="m48 288h-48v48h48zm-16 32h-16v-16h16zm0 0"/><path d="m0 352h72v16h-72zm0 0"/><path d="m0 384h80v16h-80zm0 0"/><path d="m448 208h48v-48h-48zm16-32h16v16h-16zm0 0"/><path d="m384 160h48v16h-48zm0 0"/><path d="m384 192h48v16h-48zm0 0"/><path d="m448 224h48v16h-48zm0 0"/><path d="m448 256h48v16h-48zm0 0"/><path d="m448 336h48v-48h-48zm16-32h16v16h-16zm0 0"/><path d="m432 320h-24.808594c-.542968-5.414062-1.34375-10.753906-2.414062-16h27.222656v-16h-31.375c-1.730469-5.472656-3.792969-10.792969-6.074219-16h37.449219v-48h-48v28.136719c-4.742188-7.65625-10.078125-14.878907-16-21.609375v-110.527344c0-66.167969-53.832031-120-120-120s-120 53.832031-120 120v110.519531c-5.921875 6.726563-11.257812 13.953125-16 21.609375v-28.128906h-48v48h37.457031c-2.28125 5.207031-4.34375 10.527344-6.074219 16h-31.382812v16h27.222656c-1.070312 5.246094-1.871094 10.585938-2.414062 16h-24.808594v16h24c0 88.222656 71.777344 160 160 160s160-71.777344 160-160h24zm-32-80h16v16h-16zm-304 16h-16v-16h16zm152-240c57.34375 0 104 46.65625 104 104v94.65625c-5.078125-4.359375-10.398438-8.441406-16-12.144531v-82.511719c0-48.519531-39.480469-88-88-88s-88 39.480469-88 88v82.511719c-5.601562 3.703125-10.921875 7.785156-16 12.144531v-94.65625c0-57.34375 46.65625-104 104-104zm72 177.3125c-21.671875-10.984375-46.089844-17.3125-72-17.3125s-50.328125 6.328125-72 17.3125v-73.3125c0-39.703125 32.304688-72 72-72s72 32.296875 72 72zm-72 286.6875c-79.398438 0-144-64.601562-144-144s64.601562-144 144-144 144 64.601562 144 144-64.601562 144-144 144zm0 0"/><path d="m424 352h72v16h-72zm0 0"/><path d="m416 384h80v16h-80zm0 0"/><path d="m384 128h112v16h-112zm0 0"/><path d="m384 96h112v16h-112zm0 0"/><path d="m0 128h112v16h-112zm0 0"/><path d="m0 96h112v16h-112zm0 0"/></svg>